<svg width="17" height="17" viewBox="0 0 17 17" fill="none" xmlns="http://www.w3.org/2000/svg">
<path fill-rule="evenodd" clip-rule="evenodd" d="M9.20817 7.79167C7.88795 7.79167 6.77863 6.8887 6.4641 5.66667H1.4165V4.25H6.4641C6.77863 3.02796 7.88795 2.125 9.20817 2.125C10.773 2.125 12.0415 3.39353 12.0415 4.95833C12.0415 6.52314 10.773 7.79167 9.20817 7.79167ZM13.4582 4.25H15.5832V5.66667H13.4582V4.25ZM5.6665 14.875C4.34628 14.875 3.23696 13.972 2.92243 12.75H1.4165V11.3333H2.92243C3.23696 10.1113 4.34628 9.20833 5.6665 9.20833C7.23131 9.20833 8.49984 10.4769 8.49984 12.0417C8.49984 13.6065 7.23131 14.875 5.6665 14.875ZM9.9165 12.75H15.5832V11.3333H9.9165V12.75ZM7.08317 12.0417C7.08317 12.8241 6.44891 13.4583 5.6665 13.4583C4.8841 13.4583 4.24984 12.8241 4.24984 12.0417C4.24984 11.2593 4.8841 10.625 5.6665 10.625C6.44891 10.625 7.08317 11.2593 7.08317 12.0417ZM10.6248 4.95833C10.6248 5.74074 9.99057 6.375 9.20817 6.375C8.42577 6.375 7.7915 5.74074 7.7915 4.95833C7.7915 4.17593 8.42577 3.54167 9.20817 3.54167C9.99057 3.54167 10.6248 4.17593 10.6248 4.95833Z" fill="#A2A2A2"/>
</svg>
