<svg width="17" height="17" viewBox="0 0 17 17" fill="none" xmlns="http://www.w3.org/2000/svg">
<path fill-rule="evenodd" clip-rule="evenodd" d="M15.5832 14.1667V9.20841H14.1665V14.1667H2.83317V2.83341H7.7915V1.41675H2.83317C2.05077 1.41675 1.4165 2.05101 1.4165 2.83341V14.1667C1.4165 14.9492 2.05077 15.5834 2.83317 15.5834H14.1665C14.9489 15.5834 15.5832 14.9492 15.5832 14.1667ZM13.5843 1.92917C13.2596 1.60192 12.8151 1.41675 12.3513 1.41675C11.888 1.41675 11.4439 1.6015 11.1174 1.93003L5.18944 7.85792C4.65973 8.32465 4.31248 9.01917 4.25214 9.76609L4.24984 12.0434V12.7517H7.17851C7.98198 12.6966 8.68331 12.346 9.17807 11.7752L15.0725 5.88338C15.3995 5.55636 15.5832 5.11282 15.5832 4.65035C15.5832 4.18787 15.3995 3.74433 15.0725 3.41731L13.5843 1.92917ZM7.12849 11.3368C7.5069 11.31 7.85914 11.1339 8.14198 10.8104L12.4358 6.51655L10.4849 4.56548L6.15958 8.88937C5.87259 9.14319 5.69506 9.49829 5.6665 9.82313V11.3355L7.12849 11.3368ZM11.4868 3.56391L13.4376 5.51482L14.0707 4.88165C14.1321 4.8203 14.1665 4.7371 14.1665 4.65035C14.1665 4.56359 14.1321 4.48039 14.0707 4.41904L12.5806 2.92894C12.52 2.8678 12.4374 2.83341 12.3513 2.83341C12.2652 2.83341 12.1826 2.8678 12.122 2.92894L11.4868 3.56391Z" fill="#A2A2A2"/>
</svg>
