<svg width="17" height="17" viewBox="0 0 17 17" fill="none" xmlns="http://www.w3.org/2000/svg">
<path fill-rule="evenodd" clip-rule="evenodd" d="M6.37484 0.708252H10.6248C11.4072 0.708252 12.0415 1.34252 12.0415 2.12492V2.83325H14.1665C14.9489 2.83325 15.5832 3.46752 15.5832 4.24992V5.66658C15.5832 6.44899 14.9489 7.08325 14.1665 7.08325H14.1097L13.4582 14.8749C13.4582 15.6573 12.8239 16.2916 12.0415 16.2916H4.95817C4.17577 16.2916 3.5415 15.6573 3.54395 14.9337L2.88974 7.08325H2.83317C2.05077 7.08325 1.4165 6.44899 1.4165 5.66658V4.24992C1.4165 3.46752 2.05077 2.83325 2.83317 2.83325H4.95817V2.12492C4.95817 1.34252 5.59243 0.708252 6.37484 0.708252ZM2.83317 4.24992L4.95817 4.24992H12.0415L14.1665 4.24992V5.66658H2.83317V4.24992ZM4.95817 14.8749L4.3111 7.08325H12.6884L12.044 14.8161L12.0415 14.8749H4.95817ZM10.6248 2.12492V2.83325H6.37484V2.12492H10.6248Z" fill="#979797"/>
</svg>
