<svg width="17" height="17" viewBox="0 0 17 17" fill="none" xmlns="http://www.w3.org/2000/svg">
<path fill-rule="evenodd" clip-rule="evenodd" d="M9.9165 4.25008C9.9165 4.45367 9.93798 4.65225 9.97878 4.84367L6.38684 6.63964C5.86741 6.0435 5.10262 5.66675 4.24984 5.66675C2.68503 5.66675 1.4165 6.93527 1.4165 8.50008C1.4165 10.0649 2.68503 11.3334 4.24984 11.3334C5.10262 11.3334 5.86741 10.9567 6.38684 10.3605L9.97878 12.1565C9.93798 12.3479 9.9165 12.5465 9.9165 12.7501C9.9165 14.3149 11.185 15.5834 12.7498 15.5834C14.3146 15.5834 15.5832 14.3149 15.5832 12.7501C15.5832 11.1853 14.3146 9.91675 12.7498 9.91675C11.8971 9.91675 11.1323 10.2935 10.6128 10.8896L7.02089 9.09367C7.0617 8.90225 7.08317 8.70367 7.08317 8.50008C7.08317 8.29649 7.0617 8.09791 7.02089 7.90649L10.6128 6.11052C11.1323 6.70666 11.8971 7.08342 12.7498 7.08342C14.3146 7.08342 15.5832 5.81489 15.5832 4.25008C15.5832 2.68527 14.3146 1.41675 12.7498 1.41675C11.185 1.41675 9.9165 2.68527 9.9165 4.25008ZM5.6665 8.50008C5.6665 9.28249 5.03224 9.91675 4.24984 9.91675C3.46743 9.91675 2.83317 9.28249 2.83317 8.50008C2.83317 7.71768 3.46743 7.08342 4.24984 7.08342C5.03224 7.08342 5.6665 7.71768 5.6665 8.50008ZM12.7498 5.66675C13.5322 5.66675 14.1665 5.03248 14.1665 4.25008C14.1665 3.46768 13.5322 2.83341 12.7498 2.83341C11.9674 2.83341 11.3332 3.46768 11.3332 4.25008C11.3332 5.03248 11.9674 5.66675 12.7498 5.66675ZM14.1665 12.7501C14.1665 13.5325 13.5322 14.1667 12.7498 14.1667C11.9674 14.1667 11.3332 13.5325 11.3332 12.7501C11.3332 11.9677 11.9674 11.3334 12.7498 11.3334C13.5322 11.3334 14.1665 11.9677 14.1665 12.7501Z" fill="#979797"/>
</svg>
