<svg width="11" height="8" viewBox="0 0 11 8" fill="none" xmlns="http://www.w3.org/2000/svg">
<path d="M9.81822 0H1.09091C0.801585 0 0.524107 0.114935 0.319521 0.319521C0.114935 0.524107 0 0.801585 0 1.09091V6.90912C0.000484274 7.17912 0.103113 7.43894 0.287274 7.63639C0.30227 7.65743 0.319324 7.67692 0.338183 7.69457C0.540414 7.8895 0.810036 7.99891 1.09091 8.00003H9.81822C10.0201 8.00065 10.2183 7.94653 10.3918 7.84343C10.5654 7.74034 10.7077 7.59213 10.8037 7.41457C10.8291 7.37025 10.8429 7.32021 10.8437 7.26912C10.8875 7.15419 10.9097 7.03213 10.9091 6.90912V1.09091C10.9091 0.801585 10.7942 0.524107 10.5896 0.319521C10.385 0.114935 10.1075 0 9.81822 0ZM9.81822 7.27275H1.35273C1.32695 7.27351 1.30144 7.26722 1.27897 7.25457C1.25649 7.24191 1.23789 7.22336 1.22517 7.20091C1.21246 7.17847 1.2061 7.15298 1.20679 7.1272C1.20748 7.10141 1.21519 7.0763 1.2291 7.05457L2.54546 4.79638C2.57516 4.74502 2.61696 4.7017 2.66724 4.6702C2.71752 4.63871 2.77474 4.61999 2.83391 4.61569C2.89308 4.61138 2.95241 4.62162 3.00672 4.64551C3.06102 4.6694 3.10866 4.70622 3.14547 4.75274L4.43638 6.4073C4.471 6.45112 4.51526 6.48638 4.5657 6.51035C4.61615 6.53431 4.67145 6.54633 4.72729 6.54548C4.78375 6.54408 4.8391 6.52954 4.88896 6.50303C4.93883 6.47652 4.98183 6.43877 5.01457 6.39275L7.19639 3.31274C7.23172 3.26318 7.27893 3.22328 7.33368 3.1967C7.38844 3.17012 7.44899 3.15771 7.50979 3.1606C7.57058 3.1635 7.62968 3.18161 7.68166 3.21327C7.73364 3.24493 7.77684 3.28914 7.8073 3.34183L9.93458 7.05457C9.94702 7.07599 9.95378 7.10022 9.95423 7.12498C9.95467 7.14974 9.94879 7.1742 9.93714 7.19605C9.92548 7.2179 9.90844 7.23642 9.88764 7.24984C9.86683 7.26326 9.84293 7.27115 9.81822 7.27275Z" fill="#A2A2A2"/>
</svg>
