<svg width="17" height="17" viewBox="0 0 17 17" fill="none" xmlns="http://www.w3.org/2000/svg">
<path fill-rule="evenodd" clip-rule="evenodd" d="M7.08341 12.75C3.9538 12.75 1.41675 10.2129 1.41675 7.08333C1.41675 3.95372 3.9538 1.41666 7.08341 1.41666C10.213 1.41666 12.7501 3.95372 12.7501 7.08333C12.7501 8.39283 12.3059 9.59859 11.56 10.5582L15.3759 14.3741L14.3742 15.3759L10.5582 11.5599C9.59868 12.3058 8.39292 12.75 7.08341 12.75ZM11.3334 7.08333C11.3334 9.43054 9.43062 11.3333 7.08341 11.3333C4.7362 11.3333 2.83341 9.43054 2.83341 7.08333C2.83341 4.73612 4.7362 2.83333 7.08341 2.83333C9.43062 2.83333 11.3334 4.73612 11.3334 7.08333Z" fill="#979797"/>
</svg>
